<?xml version="1.0" standalone="no"?>
<!DOCTYPE svg PUBLIC "-//W3C//DTD SVG 20010904//EN"
 "http://www.w3.org/TR/2001/REC-SVG-20010904/DTD/svg10.dtd">
<svg version="1.0" xmlns="http://www.w3.org/2000/svg"
 width="247.000000pt" height="247.000000pt" viewBox="0 0 247.000000 247.000000"
 preserveAspectRatio="xMidYMid meet">
<metadata>
Created by potrace 1.14, written by Peter Selinger 2001-2017
</metadata>
<g transform="translate(0.000000,247.000000) scale(0.100000,-0.100000)"
fill="#000000" stroke="none">
<path d="M1743 1803 c-8 -21 -59 -141 -113 -268 -173 -406 -411 -967 -417
-981 -4 -11 7 -14 50 -14 l55 0 40 98 c23 53 61 147 86 207 l44 110 179 5 c98
3 221 4 273 2 l95 -4 34 -81 c18 -45 38 -93 43 -107 6 -14 29 -70 52 -125 l43
-100 56 -3 c65 -3 64 -11 13 100 -14 31 -26 59 -26 62 0 3 -11 29 -24 58 -13
29 -61 141 -106 248 -45 107 -90 213 -100 235 -10 22 -48 112 -85 200 -37 88
-73 174 -80 190 -8 17 -30 69 -50 118 -21 48 -39 87 -42 87 -2 0 -11 -17 -20
-37z m92 -358 c32 -77 80 -193 107 -258 27 -65 47 -121 44 -125 -3 -5 -360 -8
-437 -3 -13 1 5 53 87 254 136 331 124 304 134 287 4 -8 33 -78 65 -155z"/>
<path d="M244 1170 l0 -630 48 0 c39 0 48 3 49 18 0 9 1 151 1 314 1 207 4
298 12 301 6 2 116 3 244 2 l232 0 0 47 0 48 -244 0 -244 0 1 218 2 217 250 0
250 1 3 47 3 47 -303 0 -304 0 0 -630z"/>
</g>
</svg>
